<?xml version="1.0" encoding="utf-8"?>
<!-- Generator: Adobe Illustrator 22.0.1, SVG Export Plug-In . SVG Version: 6.00 Build 0)  -->
<svg version="1.1" id="圖層_1" xmlns="http://www.w3.org/2000/svg" xmlns:xlink="http://www.w3.org/1999/xlink" x="0px" y="0px"
	 viewBox="0 0 512 512" style="enable-background:new 0 0 512 512;" xml:space="preserve">
<style type="text/css">
	.st0{fill:none;stroke:#111111;stroke-width:14;stroke-linecap:round;stroke-linejoin:round;}
	.st1{fill:none;stroke:#111111;stroke-width:24;stroke-linecap:round;stroke-linejoin:round;}
	.st2{fill:#111111;}
	.st3{fill:none;stroke:#111111;stroke-width:10;stroke-linecap:round;stroke-linejoin:round;}
	.st4{fill:none;stroke:#111111;stroke-width:16;stroke-linecap:round;stroke-linejoin:round;}
	.st5{fill:none;stroke:#111111;stroke-width:26;stroke-linecap:round;stroke-linejoin:round;}
	.st6{fill:none;stroke:#111111;stroke-width:22;stroke-linecap:round;stroke-linejoin:round;}
	.st7{fill:none;stroke:#111111;stroke-width:30;stroke-linecap:round;stroke-linejoin:round;}
</style>
<title  id="title">Wheelchair user sliding down-left on a slope</title>
<desc  id="desc">A simplified black vector icon of a wheelchair user moving down a slope toward the lower left.</desc>
<g transform="rotate(-28 256 342)">
	<line class="st0" x1="369" y1="250.4" x2="447" y2="216.4"/>
	<line class="st0" x1="387" y1="294.4" x2="457" y2="272.4"/>
	<line class="st0" x1="395" y1="340.4" x2="451" y2="332.4"/>
	<circle class="st1" cx="292" cy="326" r="66"/>
	<circle class="st2" cx="292" cy="326" r="15"/>
	<line class="st3" x1="293.6" y1="385.8" x2="292" y2="270"/>
	<line class="st3" x1="349.2" y1="293.1" x2="244" y2="354"/>
	<line class="st3" x1="233.7" y1="295" x2="344" y2="354"/>
	<circle class="st4" cx="176" cy="368" r="24"/>
	<path class="st5" d="M330,230l0,72h-74l-30,44h-48"/>
	<line class="st5" x1="330" y1="230" x2="348.7" y2="219.4"/>
	<path class="st6" d="M254,302l-80,66"/>
	<circle class="st2" cx="226" cy="178" r="38"/>
	<path class="st7" d="M244,214l32,58l-49.8,8.1L184,349.2"/>
	<polyline class="st6" points="247,219.4 298.1,222.2 292,274.3 	"/>
</g>
</svg>
