<?xml version="1.0" encoding="utf-8"?>
<!-- Generator: Adobe Illustrator 22.0.1, SVG Export Plug-In . SVG Version: 6.00 Build 0)  -->
<svg version="1.1" id="圖層_1" xmlns="http://www.w3.org/2000/svg" xmlns:xlink="http://www.w3.org/1999/xlink" x="0px" y="0px"
	 viewBox="0 0 512 512" style="enable-background:new 0 0 512 512;" xml:space="preserve">
<style type="text/css">
	.st0{fill:none;stroke:#111111;stroke-width:14;stroke-linecap:round;stroke-linejoin:round;}
	.st1{fill:none;stroke:#111111;stroke-width:26;stroke-linecap:round;stroke-linejoin:round;}
	.st2{fill:#111111;}
	.st3{fill:none;stroke:#111111;stroke-width:24;stroke-linecap:round;stroke-linejoin:round;}
	.st4{fill:none;stroke:#111111;stroke-width:28;stroke-linecap:round;stroke-linejoin:round;}
	.st5{fill:none;stroke:#111111;stroke-width:22;stroke-linecap:round;stroke-linejoin:round;}
</style>
<title  id="title">Snowboarder sliding down-left on a slope</title>
<desc  id="desc">A simplified black vector icon of a snowboarder moving down a slope toward the lower left.</desc>
<g transform="rotate(-28 256 332)">
	<line class="st0" x1="362" y1="248" x2="432" y2="218"/>
	<line class="st0" x1="374" y1="296" x2="444" y2="276"/>
	<path class="st0" d="M440,400"/>
	<path class="st0" d="M72,400"/>
	<path class="st1" d="M104,350c81.3,20.7,184.4,31.5,300.7-0.8"/>
	<circle class="st2" cx="268" cy="160" r="42"/>
	<path class="st2" d="M238,205c0,0,56.3-5.9,70,5c13.5,10.8,16.3,81.7,16.3,81.7s-24.7,11.8-63.9,6.5c-14.5-1.9-50.9-10.1-50.9-10.1
		L238,205z"/>
	<path class="st3" d="M237.5,217.1l-47.2,47.4"/>
	<path class="st3" d="M304.5,221.4l44.9,51.7"/>
	<path class="st4" d="M245,290l-37.3,51.2"/>
	<path class="st4" d="M282,292l26.9,46.2"/>
	<line class="st5" x1="178.7" y1="344" x2="211.6" y2="347.3"/>
	<line class="st5" x1="308" y1="344" x2="338" y2="344"/>
</g>
</svg>
