<?xml version="1.0" encoding="utf-8"?>
<!-- Generator: Adobe Illustrator 22.0.1, SVG Export Plug-In . SVG Version: 6.00 Build 0)  -->
<svg version="1.1" id="圖層_1" xmlns="http://www.w3.org/2000/svg" xmlns:xlink="http://www.w3.org/1999/xlink" x="0px" y="0px"
	 viewBox="0 0 512 512" style="enable-background:new 0 0 512 512;" xml:space="preserve">
<style type="text/css">
	.st0{fill:none;stroke:#111111;stroke-width:14;stroke-linecap:round;stroke-linejoin:round;}
	.st1{fill:none;}
	.st2{fill:#111111;}
</style>
<title  id="title">Car sliding down-left on a slope</title>
<desc  id="desc">A simplified black vector icon of a car moving down a slope toward the lower left.</desc>
<g transform="rotate(-28 256 342)">
	<line class="st0" x1="434.5" y1="243" x2="506.5" y2="215"/>
	<line class="st0" x1="450.5" y1="285" x2="518.5" y2="265"/>
	<line class="st0" x1="444.5" y1="329" x2="508.5" y2="329"/>
	<g>
		<path class="st1" d="M142,279.6l-32,0c-3.9,0-7,3.1-7,7c0,3.9,3.1,7,7,7h32c3.9,0,7-3.1,7-7C149,282.8,145.9,279.6,142,279.6z"/>
		<path class="st1" d="M211,214c-10.2,3.7-33,28-33,28h68l0-32.2C246,209.8,219.2,211,211,214z"/>
		<path class="st1" d="M314,214c-11.2-4.2-48-3.7-48-3.7V242l80,0C346,242,324,217.7,314,214z"/>
		<path class="st1" d="M405,296l18,0c3.9,0,7-3.1,7-7c0-3.9-3.1-7-7-7h-18c-3.9,0-7,3.1-7,7C398,292.9,401.1,296,405,296z"/>
		<path class="st1" d="M150.8,336.8c0,11,9,20,20,20c11,0,20-9,20-20c0-4-1.2-7.7-3.2-10.8l-33.6,0
			C152,329.1,150.8,332.8,150.8,336.8z"/>
		<path class="st1" d="M371.7,326c-3.6-5.5-9.7-9.2-16.8-9.2c-7.1,0-13.2,3.7-16.8,9.2c-2,3.1-3.2,6.8-3.2,10.8c0,11,9,20,20,20
			c11,0,20-9,20-20C374.8,332.8,373.7,329.1,371.7,326z"/>
		<path class="st2" d="M354.8,294.8c19.5,0,35.8,13.2,40.6,31.2H426c0,0,8.7-23.7,10-32c5.4-35.6-20-56-62-58
			c0,0-38.1-34.3-55.6-41.4c-24-9.9-84.5-14.8-108.4-4.6c-14.6,6.3-49.5,46.9-49.5,46.9c-40,2-58.5,19.1-62.5,53.1
			c-16,6-20,20-12,36h44.3c4.8-18,21.1-31.2,40.6-31.2c19.5,0,35.8,13.2,40.6,31.2l102.8,0C319,308,335.4,294.8,354.8,294.8z
			 M405,282h18c3.9,0,7,3.1,7,7c0,3.9-3.1,7-7,7l-18,0c-3.9,0-7-3.1-7-7C398,285.1,401.1,282,405,282z M142,293.6h-32
			c-3.9,0-7-3.1-7-7c0-3.9,3.1-7,7-7l32,0c3.9,0,7,3.1,7,7C149,290.5,145.9,293.6,142,293.6z M178,242c0,0,22.8-24.3,33-28
			c8.2-3,35-4.2,35-4.2l0,32.2H178z M266,242v-31.7c0,0,36.8-0.5,48,3.7c10,3.7,32,28,32,28L266,242z"/>
		<path class="st2" d="M391.3,327.1c-4.3-16.1-19-28-36.4-28c-17.5,0-32.1,11.9-36.4,28c-0.8,3.1-1.3,6.3-1.3,9.7
			c0,20.8,16.9,37.7,37.7,37.7c20.8,0,37.7-16.9,37.7-37.7C392.5,333.5,392.1,330.2,391.3,327.1z M354.8,354.8
			c-9.9,0-17.9-8-17.9-17.9c0-3.6,1.1-6.9,2.9-9.7c3.2-5,8.7-8.2,15.1-8.2c6.3,0,11.9,3.3,15.1,8.2c1.8,2.8,2.9,6.1,2.9,9.7
			C372.8,346.7,364.8,354.8,354.8,354.8z"/>
		<path class="st2" d="M170.8,299.9c-17.1,0-31.5,11.6-35.7,27.4c-0.8,3-1.2,6.2-1.2,9.5c0,20.4,16.5,36.9,36.9,36.9
			c20.4,0,36.9-16.5,36.9-36.9c0-3.3-0.4-6.5-1.2-9.5C202.3,311.5,188,299.9,170.8,299.9z M188.4,336.8c0,9.7-7.9,17.6-17.6,17.6
			c-9.7,0-17.6-7.9-17.6-17.6c0-3.5,1-6.8,2.8-9.5c3.1-4.9,8.6-8.1,14.8-8.1c6.2,0,11.7,3.2,14.8,8.1
			C187.4,330,188.4,333.3,188.4,336.8z"/>
	</g>
</g>
</svg>
